<svg xmlns="http://www.w3.org/2000/svg" viewBox="0 0 200 200" width="200" height="200">
  <defs>
    <linearGradient id="g1" x1="0" y1="0" x2="1" y2="1">
      <stop offset="0" stop-color="#60a5fa"/><stop offset="1" stop-color="#2563eb"/>
    </linearGradient>
    <linearGradient id="g2" x1="0" y1="0" x2="0" y2="1">
      <stop offset="0" stop-color="#34d399"/><stop offset="1" stop-color="#059669"/>
    </linearGradient>
  </defs>
  <circle cx="100" cy="100" r="96" fill="url(#g1)"/>
  <circle cx="100" cy="100" r="96" fill="none" stroke="#fff" stroke-width="4" opacity=".5"/>
  <!-- orejas -->
  <ellipse cx="58" cy="62" rx="20" ry="34" fill="#1e3a8a" transform="rotate(-18 58 62)"/>
  <ellipse cx="142" cy="62" rx="20" ry="34" fill="#1e3a8a" transform="rotate(18 142 62)"/>
  <!-- cara -->
  <circle cx="100" cy="100" r="58" fill="#fde68a"/>
  <!-- manchas -->
  <path d="M100 46 a58 58 0 0 1 40 18 q-30 -6 -40 -6 q-10 0 -40 6 a58 58 0 0 1 40 -18z" fill="#d97706" opacity=".55"/>
  <!-- ojos -->
  <circle cx="82" cy="96" r="8" fill="#1f2937"/>
  <circle cx="118" cy="96" r="8" fill="#1f2937"/>
  <circle cx="84" cy="94" r="2.5" fill="#fff"/><circle cx="120" cy="94" r="2.5" fill="#fff"/>
  <!-- nariz -->
  <ellipse cx="100" cy="116" rx="11" ry="8" fill="#1f2937"/>
  <!-- boca -->
  <path d="M100 124 q-14 14 -26 4 M100 124 q14 14 26 4" stroke="#1f2937" stroke-width="3" fill="none" stroke-linecap="round"/>
  <!-- estetoscopio -->
  <path d="M82 150 q18 26 36 0" stroke="url(#g2)" stroke-width="6" fill="none" stroke-linecap="round"/>
  <circle cx="118" cy="150" r="7" fill="url(#g2)"/>
  <!-- gorro medico -->
  <rect x="68" y="34" width="64" height="14" rx="7" fill="#fff"/>
  <circle cx="100" cy="30" r="12" fill="#ef4444"/>
  <rect x="64" y="44" width="72" height="8" rx="4" fill="#ef4444"/>
  <!-- cruz -->
  <path d="M100 24 v12 M94 30 h12" stroke="#fff" stroke-width="3" stroke-linecap="round"/>
</svg>
